<mxfile host="app.diagrams.net" agent="Mozilla/5.0 (Windows NT 10.0; Win64; x64) AppleWebKit/537.36 (KHTML, like Gecko) Chrome/134.0.0.0 Safari/537.36 Edg/134.0.0.0" version="26.1.1">
  <diagram name="第 1 页" id="WEnF7P9KMiBjaiylGjio">
    <mxGraphModel dx="696" dy="404" grid="1" gridSize="10" guides="1" tooltips="1" connect="1" arrows="1" fold="1" page="1" pageScale="1" pageWidth="827" pageHeight="1169" math="0" shadow="0">
      <root>
        <mxCell id="0" />
        <mxCell id="1" parent="0" />
        <mxCell id="u4J33HEfiw3ZInKi7dee-1" value="" style="endArrow=classic;html=1;rounded=0;" edge="1" parent="1">
          <mxGeometry width="50" height="50" relative="1" as="geometry">
            <mxPoint x="50" y="230" as="sourcePoint" />
            <mxPoint x="460" y="230" as="targetPoint" />
          </mxGeometry>
        </mxCell>
        <mxCell id="u4J33HEfiw3ZInKi7dee-2" value="" style="endArrow=classic;html=1;rounded=0;" edge="1" parent="1">
          <mxGeometry width="50" height="50" relative="1" as="geometry">
            <mxPoint x="60" y="240" as="sourcePoint" />
            <mxPoint x="60" y="100" as="targetPoint" />
          </mxGeometry>
        </mxCell>
        <mxCell id="u4J33HEfiw3ZInKi7dee-3" value="t(s)" style="text;html=1;align=center;verticalAlign=middle;whiteSpace=wrap;rounded=0;" vertex="1" parent="1">
          <mxGeometry x="450" y="230" width="20" height="20" as="geometry" />
        </mxCell>
        <mxCell id="u4J33HEfiw3ZInKi7dee-4" value="CPU(%)" style="text;html=1;align=center;verticalAlign=middle;whiteSpace=wrap;rounded=0;" vertex="1" parent="1">
          <mxGeometry x="10" y="80" width="60" height="30" as="geometry" />
        </mxCell>
        <mxCell id="u4J33HEfiw3ZInKi7dee-5" value="" style="endArrow=none;html=1;rounded=0;" edge="1" parent="1">
          <mxGeometry width="50" height="50" relative="1" as="geometry">
            <mxPoint x="70" y="230" as="sourcePoint" />
            <mxPoint x="70" y="225" as="targetPoint" />
          </mxGeometry>
        </mxCell>
        <mxCell id="u4J33HEfiw3ZInKi7dee-7" value="" style="endArrow=none;html=1;rounded=0;" edge="1" parent="1">
          <mxGeometry width="50" height="50" relative="1" as="geometry">
            <mxPoint x="80" y="230" as="sourcePoint" />
            <mxPoint x="80" y="225" as="targetPoint" />
          </mxGeometry>
        </mxCell>
        <mxCell id="u4J33HEfiw3ZInKi7dee-8" value="" style="endArrow=none;html=1;rounded=0;" edge="1" parent="1">
          <mxGeometry width="50" height="50" relative="1" as="geometry">
            <mxPoint x="90" y="230" as="sourcePoint" />
            <mxPoint x="90" y="225" as="targetPoint" />
          </mxGeometry>
        </mxCell>
        <mxCell id="u4J33HEfiw3ZInKi7dee-9" value="" style="endArrow=none;html=1;rounded=0;" edge="1" parent="1">
          <mxGeometry width="50" height="50" relative="1" as="geometry">
            <mxPoint x="100" y="230" as="sourcePoint" />
            <mxPoint x="100" y="225" as="targetPoint" />
          </mxGeometry>
        </mxCell>
        <mxCell id="u4J33HEfiw3ZInKi7dee-10" value="" style="endArrow=none;html=1;rounded=0;" edge="1" parent="1">
          <mxGeometry width="50" height="50" relative="1" as="geometry">
            <mxPoint x="110" y="230" as="sourcePoint" />
            <mxPoint x="110" y="220" as="targetPoint" />
          </mxGeometry>
        </mxCell>
        <mxCell id="u4J33HEfiw3ZInKi7dee-11" value="" style="endArrow=none;html=1;rounded=0;" edge="1" parent="1">
          <mxGeometry width="50" height="50" relative="1" as="geometry">
            <mxPoint x="120" y="230" as="sourcePoint" />
            <mxPoint x="120" y="225" as="targetPoint" />
          </mxGeometry>
        </mxCell>
        <mxCell id="u4J33HEfiw3ZInKi7dee-12" value="" style="endArrow=none;html=1;rounded=0;" edge="1" parent="1">
          <mxGeometry width="50" height="50" relative="1" as="geometry">
            <mxPoint x="130" y="230" as="sourcePoint" />
            <mxPoint x="130" y="225" as="targetPoint" />
          </mxGeometry>
        </mxCell>
        <mxCell id="u4J33HEfiw3ZInKi7dee-13" value="" style="endArrow=none;html=1;rounded=0;" edge="1" parent="1">
          <mxGeometry width="50" height="50" relative="1" as="geometry">
            <mxPoint x="140" y="230" as="sourcePoint" />
            <mxPoint x="140" y="225" as="targetPoint" />
          </mxGeometry>
        </mxCell>
        <mxCell id="u4J33HEfiw3ZInKi7dee-14" value="" style="endArrow=none;html=1;rounded=0;" edge="1" parent="1">
          <mxGeometry width="50" height="50" relative="1" as="geometry">
            <mxPoint x="150" y="230" as="sourcePoint" />
            <mxPoint x="150" y="225" as="targetPoint" />
          </mxGeometry>
        </mxCell>
        <mxCell id="u4J33HEfiw3ZInKi7dee-15" value="" style="endArrow=none;html=1;rounded=0;" edge="1" parent="1">
          <mxGeometry width="50" height="50" relative="1" as="geometry">
            <mxPoint x="160" y="230" as="sourcePoint" />
            <mxPoint x="160" y="220" as="targetPoint" />
          </mxGeometry>
        </mxCell>
        <mxCell id="u4J33HEfiw3ZInKi7dee-16" value="" style="endArrow=none;html=1;rounded=0;" edge="1" parent="1">
          <mxGeometry width="50" height="50" relative="1" as="geometry">
            <mxPoint x="170" y="230" as="sourcePoint" />
            <mxPoint x="170" y="225" as="targetPoint" />
          </mxGeometry>
        </mxCell>
        <mxCell id="u4J33HEfiw3ZInKi7dee-17" value="" style="endArrow=none;html=1;rounded=0;" edge="1" parent="1">
          <mxGeometry width="50" height="50" relative="1" as="geometry">
            <mxPoint x="180" y="230" as="sourcePoint" />
            <mxPoint x="180" y="225" as="targetPoint" />
          </mxGeometry>
        </mxCell>
        <mxCell id="u4J33HEfiw3ZInKi7dee-18" value="" style="endArrow=none;html=1;rounded=0;" edge="1" parent="1">
          <mxGeometry width="50" height="50" relative="1" as="geometry">
            <mxPoint x="190" y="230" as="sourcePoint" />
            <mxPoint x="190" y="225" as="targetPoint" />
          </mxGeometry>
        </mxCell>
        <mxCell id="u4J33HEfiw3ZInKi7dee-19" value="" style="endArrow=none;html=1;rounded=0;" edge="1" parent="1">
          <mxGeometry width="50" height="50" relative="1" as="geometry">
            <mxPoint x="200" y="230" as="sourcePoint" />
            <mxPoint x="200" y="225" as="targetPoint" />
          </mxGeometry>
        </mxCell>
        <mxCell id="u4J33HEfiw3ZInKi7dee-20" value="" style="endArrow=none;html=1;rounded=0;" edge="1" parent="1">
          <mxGeometry width="50" height="50" relative="1" as="geometry">
            <mxPoint x="210" y="230" as="sourcePoint" />
            <mxPoint x="210" y="220" as="targetPoint" />
          </mxGeometry>
        </mxCell>
        <mxCell id="u4J33HEfiw3ZInKi7dee-21" value="" style="endArrow=none;html=1;rounded=0;" edge="1" parent="1">
          <mxGeometry width="50" height="50" relative="1" as="geometry">
            <mxPoint x="220" y="230" as="sourcePoint" />
            <mxPoint x="220" y="225" as="targetPoint" />
          </mxGeometry>
        </mxCell>
        <mxCell id="u4J33HEfiw3ZInKi7dee-22" value="5" style="text;html=1;align=center;verticalAlign=middle;whiteSpace=wrap;rounded=0;" vertex="1" parent="1">
          <mxGeometry x="105" y="235" width="10" height="10" as="geometry" />
        </mxCell>
        <mxCell id="u4J33HEfiw3ZInKi7dee-23" value="" style="endArrow=none;html=1;rounded=0;" edge="1" parent="1">
          <mxGeometry width="50" height="50" relative="1" as="geometry">
            <mxPoint x="230" y="230" as="sourcePoint" />
            <mxPoint x="230" y="225" as="targetPoint" />
          </mxGeometry>
        </mxCell>
        <mxCell id="u4J33HEfiw3ZInKi7dee-24" value="" style="endArrow=none;html=1;rounded=0;" edge="1" parent="1">
          <mxGeometry width="50" height="50" relative="1" as="geometry">
            <mxPoint x="240" y="230" as="sourcePoint" />
            <mxPoint x="240" y="225" as="targetPoint" />
          </mxGeometry>
        </mxCell>
        <mxCell id="u4J33HEfiw3ZInKi7dee-25" value="" style="endArrow=none;html=1;rounded=0;" edge="1" parent="1">
          <mxGeometry width="50" height="50" relative="1" as="geometry">
            <mxPoint x="250" y="230" as="sourcePoint" />
            <mxPoint x="250" y="225" as="targetPoint" />
          </mxGeometry>
        </mxCell>
        <mxCell id="u4J33HEfiw3ZInKi7dee-26" value="" style="endArrow=none;html=1;rounded=0;" edge="1" parent="1">
          <mxGeometry width="50" height="50" relative="1" as="geometry">
            <mxPoint x="260" y="230" as="sourcePoint" />
            <mxPoint x="260" y="220" as="targetPoint" />
          </mxGeometry>
        </mxCell>
        <mxCell id="u4J33HEfiw3ZInKi7dee-27" value="" style="endArrow=none;html=1;rounded=0;" edge="1" parent="1">
          <mxGeometry width="50" height="50" relative="1" as="geometry">
            <mxPoint x="270" y="230" as="sourcePoint" />
            <mxPoint x="270" y="225" as="targetPoint" />
          </mxGeometry>
        </mxCell>
        <mxCell id="u4J33HEfiw3ZInKi7dee-28" value="" style="endArrow=none;html=1;rounded=0;" edge="1" parent="1">
          <mxGeometry width="50" height="50" relative="1" as="geometry">
            <mxPoint x="280" y="230" as="sourcePoint" />
            <mxPoint x="280" y="225" as="targetPoint" />
          </mxGeometry>
        </mxCell>
        <mxCell id="u4J33HEfiw3ZInKi7dee-29" value="" style="endArrow=none;html=1;rounded=0;" edge="1" parent="1">
          <mxGeometry width="50" height="50" relative="1" as="geometry">
            <mxPoint x="290" y="230" as="sourcePoint" />
            <mxPoint x="290" y="225" as="targetPoint" />
          </mxGeometry>
        </mxCell>
        <mxCell id="u4J33HEfiw3ZInKi7dee-31" value="10" style="text;html=1;align=center;verticalAlign=middle;whiteSpace=wrap;rounded=0;" vertex="1" parent="1">
          <mxGeometry x="155" y="235" width="10" height="10" as="geometry" />
        </mxCell>
        <mxCell id="u4J33HEfiw3ZInKi7dee-32" value="15" style="text;html=1;align=center;verticalAlign=middle;whiteSpace=wrap;rounded=0;" vertex="1" parent="1">
          <mxGeometry x="205" y="235" width="10" height="10" as="geometry" />
        </mxCell>
        <mxCell id="u4J33HEfiw3ZInKi7dee-33" value="20" style="text;html=1;align=center;verticalAlign=middle;whiteSpace=wrap;rounded=0;" vertex="1" parent="1">
          <mxGeometry x="255" y="235" width="10" height="10" as="geometry" />
        </mxCell>
        <mxCell id="u4J33HEfiw3ZInKi7dee-34" value="" style="endArrow=none;html=1;rounded=0;" edge="1" parent="1">
          <mxGeometry width="50" height="50" relative="1" as="geometry">
            <mxPoint x="300" y="230" as="sourcePoint" />
            <mxPoint x="300" y="225" as="targetPoint" />
          </mxGeometry>
        </mxCell>
        <mxCell id="u4J33HEfiw3ZInKi7dee-35" value="" style="endArrow=none;html=1;rounded=0;" edge="1" parent="1">
          <mxGeometry width="50" height="50" relative="1" as="geometry">
            <mxPoint x="310" y="230" as="sourcePoint" />
            <mxPoint x="310" y="220" as="targetPoint" />
          </mxGeometry>
        </mxCell>
        <mxCell id="u4J33HEfiw3ZInKi7dee-36" value="" style="endArrow=none;html=1;rounded=0;" edge="1" parent="1">
          <mxGeometry width="50" height="50" relative="1" as="geometry">
            <mxPoint x="320" y="230" as="sourcePoint" />
            <mxPoint x="320" y="225" as="targetPoint" />
          </mxGeometry>
        </mxCell>
        <mxCell id="u4J33HEfiw3ZInKi7dee-37" value="" style="endArrow=none;html=1;rounded=0;" edge="1" parent="1">
          <mxGeometry width="50" height="50" relative="1" as="geometry">
            <mxPoint x="330" y="230" as="sourcePoint" />
            <mxPoint x="330" y="225" as="targetPoint" />
          </mxGeometry>
        </mxCell>
        <mxCell id="u4J33HEfiw3ZInKi7dee-38" value="" style="endArrow=none;html=1;rounded=0;" edge="1" parent="1">
          <mxGeometry width="50" height="50" relative="1" as="geometry">
            <mxPoint x="340" y="230" as="sourcePoint" />
            <mxPoint x="340" y="225" as="targetPoint" />
          </mxGeometry>
        </mxCell>
        <mxCell id="u4J33HEfiw3ZInKi7dee-39" value="" style="endArrow=none;html=1;rounded=0;" edge="1" parent="1">
          <mxGeometry width="50" height="50" relative="1" as="geometry">
            <mxPoint x="350" y="230" as="sourcePoint" />
            <mxPoint x="350" y="225" as="targetPoint" />
          </mxGeometry>
        </mxCell>
        <mxCell id="u4J33HEfiw3ZInKi7dee-40" value="" style="endArrow=none;html=1;rounded=0;" edge="1" parent="1">
          <mxGeometry width="50" height="50" relative="1" as="geometry">
            <mxPoint x="360" y="230" as="sourcePoint" />
            <mxPoint x="360" y="220" as="targetPoint" />
          </mxGeometry>
        </mxCell>
        <mxCell id="u4J33HEfiw3ZInKi7dee-41" value="25" style="text;html=1;align=center;verticalAlign=middle;whiteSpace=wrap;rounded=0;" vertex="1" parent="1">
          <mxGeometry x="304" y="235" width="10" height="10" as="geometry" />
        </mxCell>
        <mxCell id="u4J33HEfiw3ZInKi7dee-42" value="30" style="text;html=1;align=center;verticalAlign=middle;whiteSpace=wrap;rounded=0;" vertex="1" parent="1">
          <mxGeometry x="356" y="235" width="10" height="10" as="geometry" />
        </mxCell>
        <mxCell id="u4J33HEfiw3ZInKi7dee-43" value="" style="endArrow=none;html=1;strokeWidth=2;rounded=0;fillColor=#e51400;strokeColor=#B20000;" edge="1" parent="1">
          <mxGeometry width="50" height="50" relative="1" as="geometry">
            <mxPoint x="333" y="20" as="sourcePoint" />
            <mxPoint x="383" y="20" as="targetPoint" />
          </mxGeometry>
        </mxCell>
        <mxCell id="u4J33HEfiw3ZInKi7dee-44" value="" style="endArrow=classic;html=1;rounded=0;" edge="1" parent="1">
          <mxGeometry width="50" height="50" relative="1" as="geometry">
            <mxPoint x="440" y="240" as="sourcePoint" />
            <mxPoint x="440" y="100" as="targetPoint" />
          </mxGeometry>
        </mxCell>
        <mxCell id="u4J33HEfiw3ZInKi7dee-45" value="MEM(%)" style="text;html=1;align=center;verticalAlign=middle;whiteSpace=wrap;rounded=0;" vertex="1" parent="1">
          <mxGeometry x="440" y="90" width="60" height="20" as="geometry" />
        </mxCell>
        <mxCell id="u4J33HEfiw3ZInKi7dee-46" value="" style="endArrow=none;dashed=1;html=1;rounded=0;strokeWidth=0.5;" edge="1" parent="1">
          <mxGeometry width="50" height="50" relative="1" as="geometry">
            <mxPoint x="110" y="260" as="sourcePoint" />
            <mxPoint x="110" y="60" as="targetPoint" />
          </mxGeometry>
        </mxCell>
        <mxCell id="u4J33HEfiw3ZInKi7dee-47" value="" style="endArrow=none;dashed=1;html=1;rounded=0;strokeWidth=0.5;" edge="1" parent="1">
          <mxGeometry width="50" height="50" relative="1" as="geometry">
            <mxPoint x="310" y="260" as="sourcePoint" />
            <mxPoint x="310" y="60" as="targetPoint" />
          </mxGeometry>
        </mxCell>
        <mxCell id="u4J33HEfiw3ZInKi7dee-48" value="" style="endArrow=none;dashed=1;html=1;rounded=0;strokeWidth=0.5;" edge="1" parent="1">
          <mxGeometry width="50" height="50" relative="1" as="geometry">
            <mxPoint x="160" y="260" as="sourcePoint" />
            <mxPoint x="160" y="60" as="targetPoint" />
          </mxGeometry>
        </mxCell>
        <mxCell id="u4J33HEfiw3ZInKi7dee-49" value="" style="endArrow=none;dashed=1;html=1;rounded=0;strokeWidth=0.5;" edge="1" parent="1">
          <mxGeometry width="50" height="50" relative="1" as="geometry">
            <mxPoint x="360" y="260" as="sourcePoint" />
            <mxPoint x="360" y="60" as="targetPoint" />
          </mxGeometry>
        </mxCell>
        <mxCell id="u4J33HEfiw3ZInKi7dee-50" value="" style="endArrow=none;dashed=1;html=1;rounded=0;strokeWidth=0.5;" edge="1" parent="1">
          <mxGeometry width="50" height="50" relative="1" as="geometry">
            <mxPoint x="210" y="260" as="sourcePoint" />
            <mxPoint x="210" y="60" as="targetPoint" />
          </mxGeometry>
        </mxCell>
        <mxCell id="u4J33HEfiw3ZInKi7dee-51" value="" style="endArrow=none;dashed=1;html=1;rounded=0;strokeWidth=0.5;" edge="1" parent="1">
          <mxGeometry width="50" height="50" relative="1" as="geometry">
            <mxPoint x="410" y="260" as="sourcePoint" />
            <mxPoint x="410" y="60" as="targetPoint" />
          </mxGeometry>
        </mxCell>
        <mxCell id="u4J33HEfiw3ZInKi7dee-52" value="" style="endArrow=none;html=1;rounded=0;" edge="1" parent="1">
          <mxGeometry width="50" height="50" relative="1" as="geometry">
            <mxPoint x="370" y="230" as="sourcePoint" />
            <mxPoint x="370" y="225" as="targetPoint" />
          </mxGeometry>
        </mxCell>
        <mxCell id="u4J33HEfiw3ZInKi7dee-53" value="" style="endArrow=none;html=1;rounded=0;" edge="1" parent="1">
          <mxGeometry width="50" height="50" relative="1" as="geometry">
            <mxPoint x="380" y="230" as="sourcePoint" />
            <mxPoint x="380" y="225" as="targetPoint" />
          </mxGeometry>
        </mxCell>
        <mxCell id="u4J33HEfiw3ZInKi7dee-54" value="" style="endArrow=none;html=1;rounded=0;" edge="1" parent="1">
          <mxGeometry width="50" height="50" relative="1" as="geometry">
            <mxPoint x="390" y="230" as="sourcePoint" />
            <mxPoint x="390" y="225" as="targetPoint" />
          </mxGeometry>
        </mxCell>
        <mxCell id="u4J33HEfiw3ZInKi7dee-55" value="" style="endArrow=none;html=1;rounded=0;" edge="1" parent="1">
          <mxGeometry width="50" height="50" relative="1" as="geometry">
            <mxPoint x="400" y="230" as="sourcePoint" />
            <mxPoint x="400" y="225" as="targetPoint" />
          </mxGeometry>
        </mxCell>
        <mxCell id="u4J33HEfiw3ZInKi7dee-56" value="" style="endArrow=none;html=1;rounded=0;" edge="1" parent="1">
          <mxGeometry width="50" height="50" relative="1" as="geometry">
            <mxPoint x="410" y="230" as="sourcePoint" />
            <mxPoint x="410" y="220" as="targetPoint" />
          </mxGeometry>
        </mxCell>
        <mxCell id="u4J33HEfiw3ZInKi7dee-57" value="35" style="text;html=1;align=center;verticalAlign=middle;whiteSpace=wrap;rounded=0;" vertex="1" parent="1">
          <mxGeometry x="405" y="235" width="10" height="10" as="geometry" />
        </mxCell>
        <mxCell id="u4J33HEfiw3ZInKi7dee-58" value="&lt;font style=&quot;font-size: 8px;&quot; face=&quot;Times New Roman&quot;&gt;sfc_0_begin&lt;/font&gt;" style="text;html=1;align=center;verticalAlign=middle;whiteSpace=wrap;rounded=0;" vertex="1" parent="1">
          <mxGeometry x="86.25" y="50" width="47.5" height="10" as="geometry" />
        </mxCell>
        <mxCell id="u4J33HEfiw3ZInKi7dee-59" value="&lt;font style=&quot;font-size: 8px;&quot; face=&quot;Times New Roman&quot;&gt;sfc_0_end&lt;/font&gt;" style="text;html=1;align=center;verticalAlign=middle;whiteSpace=wrap;rounded=0;" vertex="1" parent="1">
          <mxGeometry x="285.25" y="50" width="47.5" height="10" as="geometry" />
        </mxCell>
        <mxCell id="u4J33HEfiw3ZInKi7dee-60" value="&lt;font style=&quot;font-size: 8px;&quot; face=&quot;Times New Roman&quot;&gt;sfc_1_begin&lt;/font&gt;" style="text;html=1;align=center;verticalAlign=middle;whiteSpace=wrap;rounded=0;" vertex="1" parent="1">
          <mxGeometry x="136.25" y="50" width="47.5" height="10" as="geometry" />
        </mxCell>
        <mxCell id="u4J33HEfiw3ZInKi7dee-62" value="&lt;font style=&quot;font-size: 8px;&quot; face=&quot;Times New Roman&quot;&gt;sfc_1_end&lt;/font&gt;" style="text;html=1;align=center;verticalAlign=middle;whiteSpace=wrap;rounded=0;" vertex="1" parent="1">
          <mxGeometry x="338" y="50" width="47.5" height="10" as="geometry" />
        </mxCell>
        <mxCell id="u4J33HEfiw3ZInKi7dee-64" value="&lt;font style=&quot;font-size: 8px;&quot; face=&quot;Times New Roman&quot;&gt;sfc_2_begin&lt;/font&gt;" style="text;html=1;align=center;verticalAlign=middle;whiteSpace=wrap;rounded=0;" vertex="1" parent="1">
          <mxGeometry x="186.25" y="50" width="47.5" height="10" as="geometry" />
        </mxCell>
        <mxCell id="u4J33HEfiw3ZInKi7dee-65" value="&lt;font style=&quot;font-size: 8px;&quot; face=&quot;Times New Roman&quot;&gt;sfc_2_end&lt;/font&gt;" style="text;html=1;align=center;verticalAlign=middle;whiteSpace=wrap;rounded=0;" vertex="1" parent="1">
          <mxGeometry x="385.5" y="50" width="47.5" height="10" as="geometry" />
        </mxCell>
        <mxCell id="u4J33HEfiw3ZInKi7dee-66" value="" style="endArrow=none;dashed=1;html=1;rounded=0;strokeWidth=0.5;" edge="1" parent="1">
          <mxGeometry width="50" height="50" relative="1" as="geometry">
            <mxPoint x="180" y="260" as="sourcePoint" />
            <mxPoint x="180" y="40" as="targetPoint" />
          </mxGeometry>
        </mxCell>
        <mxCell id="u4J33HEfiw3ZInKi7dee-67" value="" style="endArrow=none;dashed=1;html=1;rounded=0;strokeWidth=0.5;" edge="1" parent="1">
          <mxGeometry width="50" height="50" relative="1" as="geometry">
            <mxPoint x="260" y="260" as="sourcePoint" />
            <mxPoint x="260" y="40" as="targetPoint" />
          </mxGeometry>
        </mxCell>
        <mxCell id="u4J33HEfiw3ZInKi7dee-68" value="&lt;font style=&quot;font-size: 8px;&quot; face=&quot;Times New Roman&quot;&gt;topo_change&lt;/font&gt;" style="text;html=1;align=center;verticalAlign=middle;whiteSpace=wrap;rounded=0;" vertex="1" parent="1">
          <mxGeometry x="155" y="30" width="47.5" height="10" as="geometry" />
        </mxCell>
        <mxCell id="u4J33HEfiw3ZInKi7dee-69" value="&lt;font style=&quot;font-size: 8px;&quot; face=&quot;Times New Roman&quot;&gt;topo_change&lt;/font&gt;" style="text;html=1;align=center;verticalAlign=middle;whiteSpace=wrap;rounded=0;" vertex="1" parent="1">
          <mxGeometry x="237.75" y="30" width="47.5" height="10" as="geometry" />
        </mxCell>
        <mxCell id="u4J33HEfiw3ZInKi7dee-79" value="&lt;font style=&quot;font-size: 8px;&quot; face=&quot;Times New Roman&quot;&gt;NFVI_0&lt;/font&gt;" style="text;html=1;align=center;verticalAlign=middle;whiteSpace=wrap;rounded=0;" vertex="1" parent="1">
          <mxGeometry x="292.5" y="10" width="47.5" height="10" as="geometry" />
        </mxCell>
        <mxCell id="u4J33HEfiw3ZInKi7dee-80" value="&lt;font style=&quot;font-size: 8px;&quot; face=&quot;Times New Roman&quot;&gt;NFVI_1&lt;/font&gt;" style="text;html=1;align=center;verticalAlign=middle;whiteSpace=wrap;rounded=0;" vertex="1" parent="1">
          <mxGeometry x="292.5" y="20" width="47.5" height="10" as="geometry" />
        </mxCell>
        <mxCell id="u4J33HEfiw3ZInKi7dee-81" value="" style="endArrow=none;html=1;strokeWidth=2;rounded=0;fillColor=#60a917;strokeColor=#2D7600;" edge="1" parent="1">
          <mxGeometry width="50" height="50" relative="1" as="geometry">
            <mxPoint x="333" y="29.9" as="sourcePoint" />
            <mxPoint x="383" y="29.9" as="targetPoint" />
          </mxGeometry>
        </mxCell>
        <mxCell id="u4J33HEfiw3ZInKi7dee-82" value="&lt;font style=&quot;font-size: 8px;&quot; face=&quot;Times New Roman&quot;&gt;NFVI_2&lt;/font&gt;" style="text;html=1;align=center;verticalAlign=middle;whiteSpace=wrap;rounded=0;" vertex="1" parent="1">
          <mxGeometry x="292.5" y="30" width="47.5" height="10" as="geometry" />
        </mxCell>
        <mxCell id="u4J33HEfiw3ZInKi7dee-83" value="" style="endArrow=none;html=1;strokeWidth=2;rounded=0;fillColor=#1ba1e2;strokeColor=#006EAF;" edge="1" parent="1">
          <mxGeometry width="50" height="50" relative="1" as="geometry">
            <mxPoint x="333" y="39.9" as="sourcePoint" />
            <mxPoint x="383" y="39.9" as="targetPoint" />
          </mxGeometry>
        </mxCell>
        <mxCell id="u4J33HEfiw3ZInKi7dee-84" value="" style="endArrow=none;html=1;strokeWidth=2;rounded=0;fillColor=#e51400;strokeColor=#B20000;dashed=1;" edge="1" parent="1">
          <mxGeometry width="50" height="50" relative="1" as="geometry">
            <mxPoint x="390" y="20" as="sourcePoint" />
            <mxPoint x="440" y="20" as="targetPoint" />
          </mxGeometry>
        </mxCell>
        <mxCell id="u4J33HEfiw3ZInKi7dee-85" value="" style="endArrow=none;html=1;strokeWidth=2;rounded=0;fillColor=#60a917;strokeColor=#2D7600;dashed=1;" edge="1" parent="1">
          <mxGeometry width="50" height="50" relative="1" as="geometry">
            <mxPoint x="390" y="29.9" as="sourcePoint" />
            <mxPoint x="440" y="29.9" as="targetPoint" />
          </mxGeometry>
        </mxCell>
        <mxCell id="u4J33HEfiw3ZInKi7dee-86" value="" style="endArrow=none;html=1;strokeWidth=2;rounded=0;fillColor=#1ba1e2;strokeColor=#006EAF;dashed=1;" edge="1" parent="1">
          <mxGeometry width="50" height="50" relative="1" as="geometry">
            <mxPoint x="390" y="39.9" as="sourcePoint" />
            <mxPoint x="440" y="39.9" as="targetPoint" />
          </mxGeometry>
        </mxCell>
        <mxCell id="u4J33HEfiw3ZInKi7dee-87" value="&lt;font style=&quot;font-size: 8px;&quot; face=&quot;Times New Roman&quot;&gt;CPU&lt;/font&gt;" style="text;html=1;align=center;verticalAlign=middle;whiteSpace=wrap;rounded=0;" vertex="1" parent="1">
          <mxGeometry x="333" y="10" width="47.5" height="10" as="geometry" />
        </mxCell>
        <mxCell id="u4J33HEfiw3ZInKi7dee-88" value="&lt;font style=&quot;font-size: 8px;&quot; face=&quot;Times New Roman&quot;&gt;CPU&lt;/font&gt;" style="text;html=1;align=center;verticalAlign=middle;whiteSpace=wrap;rounded=0;" vertex="1" parent="1">
          <mxGeometry x="333" y="20" width="47.5" height="10" as="geometry" />
        </mxCell>
        <mxCell id="u4J33HEfiw3ZInKi7dee-89" value="&lt;font style=&quot;font-size: 8px;&quot; face=&quot;Times New Roman&quot;&gt;CPU&lt;/font&gt;" style="text;html=1;align=center;verticalAlign=middle;whiteSpace=wrap;rounded=0;" vertex="1" parent="1">
          <mxGeometry x="333" y="30" width="47.5" height="10" as="geometry" />
        </mxCell>
        <mxCell id="u4J33HEfiw3ZInKi7dee-90" value="&lt;font style=&quot;font-size: 8px;&quot; face=&quot;Times New Roman&quot;&gt;MEM&lt;/font&gt;" style="text;html=1;align=center;verticalAlign=middle;whiteSpace=wrap;rounded=0;" vertex="1" parent="1">
          <mxGeometry x="390" y="10" width="47.5" height="10" as="geometry" />
        </mxCell>
        <mxCell id="u4J33HEfiw3ZInKi7dee-91" value="&lt;font style=&quot;font-size: 8px;&quot; face=&quot;Times New Roman&quot;&gt;MEM&lt;/font&gt;" style="text;html=1;align=center;verticalAlign=middle;whiteSpace=wrap;rounded=0;" vertex="1" parent="1">
          <mxGeometry x="390" y="20" width="47.5" height="10" as="geometry" />
        </mxCell>
        <mxCell id="u4J33HEfiw3ZInKi7dee-92" value="&lt;font style=&quot;font-size: 8px;&quot; face=&quot;Times New Roman&quot;&gt;MEM&lt;/font&gt;" style="text;html=1;align=center;verticalAlign=middle;whiteSpace=wrap;rounded=0;" vertex="1" parent="1">
          <mxGeometry x="390" y="30" width="47.5" height="10" as="geometry" />
        </mxCell>
        <mxCell id="u4J33HEfiw3ZInKi7dee-95" value="" style="endArrow=none;html=1;strokeWidth=2;rounded=0;fillColor=#e51400;strokeColor=#B20000;" edge="1" parent="1">
          <mxGeometry width="50" height="50" relative="1" as="geometry">
            <mxPoint x="60" y="230" as="sourcePoint" />
            <mxPoint x="110" y="230" as="targetPoint" />
          </mxGeometry>
        </mxCell>
        <mxCell id="u4J33HEfiw3ZInKi7dee-96" value="" style="endArrow=none;html=1;strokeWidth=2;rounded=0;fillColor=#e51400;strokeColor=#B20000;" edge="1" parent="1">
          <mxGeometry width="50" height="50" relative="1" as="geometry">
            <mxPoint x="110" y="230" as="sourcePoint" />
            <mxPoint x="110" y="170" as="targetPoint" />
          </mxGeometry>
        </mxCell>
        <mxCell id="u4J33HEfiw3ZInKi7dee-97" value="" style="endArrow=none;html=1;strokeWidth=2;rounded=0;fillColor=#60a917;strokeColor=#2D7600;" edge="1" parent="1">
          <mxGeometry width="50" height="50" relative="1" as="geometry">
            <mxPoint x="60" y="228" as="sourcePoint" />
            <mxPoint x="110" y="228" as="targetPoint" />
          </mxGeometry>
        </mxCell>
        <mxCell id="u4J33HEfiw3ZInKi7dee-98" value="" style="endArrow=none;html=1;strokeWidth=2;rounded=0;fillColor=#1ba1e2;strokeColor=#006EAF;" edge="1" parent="1">
          <mxGeometry width="50" height="50" relative="1" as="geometry">
            <mxPoint x="60" y="232" as="sourcePoint" />
            <mxPoint x="160" y="232" as="targetPoint" />
          </mxGeometry>
        </mxCell>
        <mxCell id="u4J33HEfiw3ZInKi7dee-99" value="" style="endArrow=none;html=1;strokeWidth=2;rounded=0;fillColor=#60a917;strokeColor=#2D7600;" edge="1" parent="1">
          <mxGeometry width="50" height="50" relative="1" as="geometry">
            <mxPoint x="112" y="200" as="sourcePoint" />
            <mxPoint x="112" y="230" as="targetPoint" />
          </mxGeometry>
        </mxCell>
        <mxCell id="u4J33HEfiw3ZInKi7dee-100" value="" style="endArrow=none;html=1;strokeWidth=2;rounded=0;fillColor=#e51400;strokeColor=#B20000;" edge="1" parent="1">
          <mxGeometry width="50" height="50" relative="1" as="geometry">
            <mxPoint x="160" y="170" as="sourcePoint" />
            <mxPoint x="110" y="170" as="targetPoint" />
          </mxGeometry>
        </mxCell>
        <mxCell id="u4J33HEfiw3ZInKi7dee-101" value="" style="endArrow=none;html=1;strokeWidth=2;rounded=0;fillColor=#e51400;strokeColor=#B20000;" edge="1" parent="1">
          <mxGeometry width="50" height="50" relative="1" as="geometry">
            <mxPoint x="160" y="170" as="sourcePoint" />
            <mxPoint x="160" y="140" as="targetPoint" />
          </mxGeometry>
        </mxCell>
        <mxCell id="u4J33HEfiw3ZInKi7dee-102" value="" style="endArrow=none;html=1;strokeWidth=2;rounded=0;fillColor=#1ba1e2;strokeColor=#006EAF;entryX=0.484;entryY=-0.319;entryDx=0;entryDy=0;entryPerimeter=0;" edge="1" parent="1" target="u4J33HEfiw3ZInKi7dee-31">
          <mxGeometry width="50" height="50" relative="1" as="geometry">
            <mxPoint x="160" y="200" as="sourcePoint" />
            <mxPoint x="160" y="230" as="targetPoint" />
          </mxGeometry>
        </mxCell>
        <mxCell id="u4J33HEfiw3ZInKi7dee-103" value="" style="endArrow=none;html=1;strokeWidth=2;rounded=0;fillColor=#e51400;strokeColor=#B20000;" edge="1" parent="1">
          <mxGeometry width="50" height="50" relative="1" as="geometry">
            <mxPoint x="180" y="140" as="sourcePoint" />
            <mxPoint x="160" y="140" as="targetPoint" />
          </mxGeometry>
        </mxCell>
        <mxCell id="u4J33HEfiw3ZInKi7dee-104" value="" style="endArrow=none;html=1;strokeWidth=2;rounded=0;fillColor=#e51400;strokeColor=#B20000;" edge="1" parent="1">
          <mxGeometry width="50" height="50" relative="1" as="geometry">
            <mxPoint x="178.61" y="170" as="sourcePoint" />
            <mxPoint x="178.61" y="140" as="targetPoint" />
          </mxGeometry>
        </mxCell>
        <mxCell id="u4J33HEfiw3ZInKi7dee-105" value="" style="endArrow=none;html=1;strokeWidth=2;rounded=0;fillColor=#60a917;strokeColor=#2D7600;" edge="1" parent="1">
          <mxGeometry width="50" height="50" relative="1" as="geometry">
            <mxPoint x="110" y="200" as="sourcePoint" />
            <mxPoint x="210" y="200" as="targetPoint" />
          </mxGeometry>
        </mxCell>
        <mxCell id="u4J33HEfiw3ZInKi7dee-107" value="" style="endArrow=none;html=1;strokeWidth=2;rounded=0;fillColor=#1ba1e2;strokeColor=#006EAF;" edge="1" parent="1">
          <mxGeometry width="50" height="50" relative="1" as="geometry">
            <mxPoint x="160" y="198" as="sourcePoint" />
            <mxPoint x="180" y="198" as="targetPoint" />
          </mxGeometry>
        </mxCell>
        <mxCell id="u4J33HEfiw3ZInKi7dee-108" value="" style="endArrow=none;html=1;strokeWidth=2;rounded=0;fillColor=#1ba1e2;strokeColor=#006EAF;" edge="1" parent="1">
          <mxGeometry width="50" height="50" relative="1" as="geometry">
            <mxPoint x="178.61" y="170" as="sourcePoint" />
            <mxPoint x="178.61" y="200" as="targetPoint" />
          </mxGeometry>
        </mxCell>
        <mxCell id="u4J33HEfiw3ZInKi7dee-109" value="" style="endArrow=none;html=1;strokeWidth=2;rounded=0;fillColor=#e51400;strokeColor=#B20000;" edge="1" parent="1">
          <mxGeometry width="50" height="50" relative="1" as="geometry">
            <mxPoint x="210" y="170" as="sourcePoint" />
            <mxPoint x="180" y="170" as="targetPoint" />
          </mxGeometry>
        </mxCell>
        <mxCell id="u4J33HEfiw3ZInKi7dee-110" value="" style="endArrow=none;html=1;strokeWidth=2;rounded=0;fillColor=#60a917;strokeColor=#2D7600;" edge="1" parent="1">
          <mxGeometry width="50" height="50" relative="1" as="geometry">
            <mxPoint x="209.86" y="170" as="sourcePoint" />
            <mxPoint x="209.86" y="200" as="targetPoint" />
          </mxGeometry>
        </mxCell>
        <mxCell id="u4J33HEfiw3ZInKi7dee-111" value="" style="endArrow=none;html=1;strokeWidth=2;rounded=0;fillColor=#1ba1e2;strokeColor=#006EAF;" edge="1" parent="1">
          <mxGeometry width="50" height="50" relative="1" as="geometry">
            <mxPoint x="180" y="168" as="sourcePoint" />
            <mxPoint x="210" y="168" as="targetPoint" />
          </mxGeometry>
        </mxCell>
        <mxCell id="u4J33HEfiw3ZInKi7dee-112" value="" style="endArrow=none;html=1;strokeWidth=2;rounded=0;fillColor=#1ba1e2;strokeColor=#006EAF;" edge="1" parent="1">
          <mxGeometry width="50" height="50" relative="1" as="geometry">
            <mxPoint x="209.86" y="140" as="sourcePoint" />
            <mxPoint x="209.86" y="170" as="targetPoint" />
          </mxGeometry>
        </mxCell>
        <mxCell id="u4J33HEfiw3ZInKi7dee-113" value="" style="endArrow=none;html=1;strokeWidth=2;rounded=0;fillColor=#1ba1e2;strokeColor=#006EAF;" edge="1" parent="1">
          <mxGeometry width="50" height="50" relative="1" as="geometry">
            <mxPoint x="210" y="140" as="sourcePoint" />
            <mxPoint x="310" y="140" as="targetPoint" />
          </mxGeometry>
        </mxCell>
        <mxCell id="u4J33HEfiw3ZInKi7dee-114" value="" style="endArrow=none;html=1;strokeWidth=2;rounded=0;fillColor=#60a917;strokeColor=#2D7600;" edge="1" parent="1">
          <mxGeometry width="50" height="50" relative="1" as="geometry">
            <mxPoint x="210" y="170" as="sourcePoint" />
            <mxPoint x="310" y="170" as="targetPoint" />
          </mxGeometry>
        </mxCell>
        <mxCell id="u4J33HEfiw3ZInKi7dee-115" value="" style="endArrow=none;html=1;strokeWidth=2;rounded=0;fillColor=#e51400;strokeColor=#B20000;" edge="1" parent="1">
          <mxGeometry width="50" height="50" relative="1" as="geometry">
            <mxPoint x="310" y="168" as="sourcePoint" />
            <mxPoint x="210" y="168" as="targetPoint" />
          </mxGeometry>
        </mxCell>
        <mxCell id="u4J33HEfiw3ZInKi7dee-116" value="" style="endArrow=none;html=1;strokeWidth=2;rounded=0;fillColor=#e51400;strokeColor=#B20000;" edge="1" parent="1">
          <mxGeometry width="50" height="50" relative="1" as="geometry">
            <mxPoint x="308.86" y="200" as="sourcePoint" />
            <mxPoint x="308.86" y="170" as="targetPoint" />
          </mxGeometry>
        </mxCell>
        <mxCell id="u4J33HEfiw3ZInKi7dee-117" value="" style="endArrow=none;html=1;strokeWidth=2;rounded=0;fillColor=#1ba1e2;strokeColor=#006EAF;" edge="1" parent="1">
          <mxGeometry width="50" height="50" relative="1" as="geometry">
            <mxPoint x="308.86" y="140" as="sourcePoint" />
            <mxPoint x="308.86" y="170" as="targetPoint" />
          </mxGeometry>
        </mxCell>
        <mxCell id="u4J33HEfiw3ZInKi7dee-118" value="" style="endArrow=none;html=1;strokeWidth=2;rounded=0;fillColor=#60a917;strokeColor=#2D7600;" edge="1" parent="1">
          <mxGeometry width="50" height="50" relative="1" as="geometry">
            <mxPoint x="310.86" y="170" as="sourcePoint" />
            <mxPoint x="310.86" y="200" as="targetPoint" />
          </mxGeometry>
        </mxCell>
        <mxCell id="u4J33HEfiw3ZInKi7dee-119" value="" style="endArrow=none;html=1;strokeWidth=2;rounded=0;fillColor=#1ba1e2;strokeColor=#006EAF;" edge="1" parent="1">
          <mxGeometry width="50" height="50" relative="1" as="geometry">
            <mxPoint x="310" y="170" as="sourcePoint" />
            <mxPoint x="360" y="170" as="targetPoint" />
          </mxGeometry>
        </mxCell>
        <mxCell id="u4J33HEfiw3ZInKi7dee-120" value="" style="endArrow=none;html=1;strokeWidth=2;rounded=0;fillColor=#60a917;strokeColor=#2D7600;" edge="1" parent="1">
          <mxGeometry width="50" height="50" relative="1" as="geometry">
            <mxPoint x="310" y="200" as="sourcePoint" />
            <mxPoint x="360" y="200" as="targetPoint" />
          </mxGeometry>
        </mxCell>
        <mxCell id="u4J33HEfiw3ZInKi7dee-122" value="" style="endArrow=none;html=1;strokeWidth=2;rounded=0;fillColor=#e51400;strokeColor=#B20000;" edge="1" parent="1">
          <mxGeometry width="50" height="50" relative="1" as="geometry">
            <mxPoint x="360" y="202" as="sourcePoint" />
            <mxPoint x="310" y="202" as="targetPoint" />
          </mxGeometry>
        </mxCell>
        <mxCell id="u4J33HEfiw3ZInKi7dee-123" value="" style="endArrow=none;html=1;strokeWidth=2;rounded=0;fillColor=#e51400;strokeColor=#B20000;" edge="1" parent="1">
          <mxGeometry width="50" height="50" relative="1" as="geometry">
            <mxPoint x="360" y="230" as="sourcePoint" />
            <mxPoint x="360" y="200" as="targetPoint" />
          </mxGeometry>
        </mxCell>
        <mxCell id="u4J33HEfiw3ZInKi7dee-124" value="" style="endArrow=none;html=1;strokeWidth=2;rounded=0;fillColor=#1ba1e2;strokeColor=#006EAF;" edge="1" parent="1">
          <mxGeometry width="50" height="50" relative="1" as="geometry">
            <mxPoint x="360.86" y="170" as="sourcePoint" />
            <mxPoint x="360.86" y="200" as="targetPoint" />
          </mxGeometry>
        </mxCell>
        <mxCell id="u4J33HEfiw3ZInKi7dee-125" value="" style="endArrow=none;html=1;strokeWidth=2;rounded=0;fillColor=#1ba1e2;strokeColor=#006EAF;" edge="1" parent="1">
          <mxGeometry width="50" height="50" relative="1" as="geometry">
            <mxPoint x="360" y="200" as="sourcePoint" />
            <mxPoint x="410" y="200" as="targetPoint" />
          </mxGeometry>
        </mxCell>
        <mxCell id="u4J33HEfiw3ZInKi7dee-126" value="" style="endArrow=none;html=1;strokeWidth=2;rounded=0;fillColor=#60a917;strokeColor=#2D7600;" edge="1" parent="1">
          <mxGeometry width="50" height="50" relative="1" as="geometry">
            <mxPoint x="360" y="202" as="sourcePoint" />
            <mxPoint x="410" y="202" as="targetPoint" />
          </mxGeometry>
        </mxCell>
        <mxCell id="u4J33HEfiw3ZInKi7dee-127" value="" style="endArrow=none;html=1;strokeWidth=2;rounded=0;fillColor=#e51400;strokeColor=#B20000;" edge="1" parent="1">
          <mxGeometry width="50" height="50" relative="1" as="geometry">
            <mxPoint x="440" y="230" as="sourcePoint" />
            <mxPoint x="359" y="230" as="targetPoint" />
          </mxGeometry>
        </mxCell>
        <mxCell id="u4J33HEfiw3ZInKi7dee-128" value="" style="endArrow=none;html=1;strokeWidth=2;rounded=0;fillColor=#1ba1e2;strokeColor=#006EAF;" edge="1" parent="1">
          <mxGeometry width="50" height="50" relative="1" as="geometry">
            <mxPoint x="409.86" y="200" as="sourcePoint" />
            <mxPoint x="409.86" y="230" as="targetPoint" />
          </mxGeometry>
        </mxCell>
        <mxCell id="u4J33HEfiw3ZInKi7dee-129" value="" style="endArrow=none;html=1;strokeWidth=2;rounded=0;fillColor=#60a917;strokeColor=#2D7600;" edge="1" parent="1">
          <mxGeometry width="50" height="50" relative="1" as="geometry">
            <mxPoint x="412" y="200" as="sourcePoint" />
            <mxPoint x="412" y="230" as="targetPoint" />
          </mxGeometry>
        </mxCell>
        <mxCell id="u4J33HEfiw3ZInKi7dee-130" value="" style="endArrow=none;html=1;strokeWidth=2;rounded=0;fillColor=#60a917;strokeColor=#2D7600;" edge="1" parent="1">
          <mxGeometry width="50" height="50" relative="1" as="geometry">
            <mxPoint x="412" y="228" as="sourcePoint" />
            <mxPoint x="440" y="228" as="targetPoint" />
          </mxGeometry>
        </mxCell>
        <mxCell id="u4J33HEfiw3ZInKi7dee-131" value="" style="endArrow=none;html=1;strokeWidth=2;rounded=0;fillColor=#1ba1e2;strokeColor=#006EAF;" edge="1" parent="1">
          <mxGeometry width="50" height="50" relative="1" as="geometry">
            <mxPoint x="440" y="232" as="sourcePoint" />
            <mxPoint x="410" y="232" as="targetPoint" />
          </mxGeometry>
        </mxCell>
      </root>
    </mxGraphModel>
  </diagram>
</mxfile>
